/* XPM */
static char *bitcoin_64[] = {
/* columns rows colors chars-per-pixel */
"64 65 96 2 ",
"   c #A77E48",
".  c #A87F48",
"X  c #A97F48",
"o  c #AA8048",
"O  c #AA8049",
"+  c #AB8149",
"@  c #AC8249",
"#  c #AD8249",
"$  c #AE8349",
"%  c #AF8349",
"&  c #AD824A",
"*  c #AE834A",
"=  c #AF834A",
"-  c #B0844A",
";  c #B0854A",
":  c #B1854A",
">  c #B1854B",
",  c #B2864A",
"<  c #B3864A",
"1  c #B2864B",
"2  c #B3864B",
"3  c #B4874B",
"4  c #B5874B",
"5  c #B4884B",
"6  c #B6884B",
"7  c #B7894B",
"8  c #B6884C",
"9  c #B6894C",
"0  c #B78A4C",
"q  c #B88A4B",
"w  c #B88A4C",
"e  c #B98A4C",
"r  c #B98B4C",
"t  c #BA8B4C",
"y  c #BA8B4D",
"u  c #BB8C4C",
"i  c #BA8C4D",
"p  c #BB8D4D",
"a  c #BC8C4C",
"s  c #BD8D4C",
"d  c #BD8D4D",
"f  c #BD8E4D",
"g  c #BE8E4D",
"h  c #BF8F4D",
"j  c #BE8E4E",
"k  c #BF8F4E",
"l  c #C08F4D",
"z  c #C1904D",
"x  c #C0904E",
"c  c #C1904E",
"v  c #C1914E",
"b  c #C2914E",
"n  c #E0B35C",
"m  c #E1B45C",
"M  c #E2B55D",
"N  c #E3B65D",
"B  c #E4B75E",
"V  c #E4B85E",
"C  c #E5B95F",
"Z  c #E6B95F",
"A  c #E6BA5F",
"S  c #E7BA5F",
"D  c #E8BB60",
"F  c #E8BC60",
"G  c #E9BD60",
"H  c #E9BD61",
"J  c #EABE61",
"K  c #EBBF62",
"L  c #ECC062",
"P  c #ECC162",
"I  c #EDC162",
"U  c #EEC263",
"Y  c #EFC463",
"T  c #EFC364",
"R  c #F0C564",
"E  c #F1C665",
"W  c #F2C665",
"Q  c #F2C765",
"!  c #F3C865",
"~  c #F4C966",
"^  c #F5CA66",
"/  c #F5CA67",
"(  c #F6CB67",
")  c #F6CC67",
"_  c #F7CD68",
"`  c #F8CD68",
"'  c #F8CE68",
"]  c #F9CE68",
"[  c #FACF69",
"{  c #FAD069",
"}  c #FBD169",
"|  c #FBD16A",
" . c #FCD26A",
".. c #FDD36B",
"X. c #FED46B",
"o. c None",
/* pixels */
"o.o.o.o.o.o.o.o.o.o.o.o.o.o.o.o.o.o.o.o.o.o.o.o.o.o.o.o.o.o.o.o.o.o.o.o.o.o.o.o.o.o.o.o.o.o.o.o.o.o.o.o.o.o.o.o.o.o.o.o.o.o.o.o.",
"n n o.o.o.o.o.o.o.o.o.o.o.o.o.o.o.o.o.o.o.o.o.o.o.o.o.o.o.o.D n n n o.o.o.o.o.o.o.o.o.o.o.o.o.o.o.o.o.o.o.o.o.o.o.o.o.o.o.D n n ",
"n n n A A o.o.o.o.o.o.o.o.o.o.o.o.o.o.o.o.o.o.o.o.o.o.K D D n D n n n D D o.o.o.o.o.o.o.o.o.o.o.o.o.o.o.o.o.o.o.o.o.o.K A A n n ",
"n n n A A A I I o.o.o.o.o.o.o.o.o.o.o.o.o.o.o.o.E E K K D n D n n D n K D K I o.o.o.o.o.o.o.o.o.o.o.o.o.o.o.o.o.I I K K A A n n ",
"n n A A S S I I R R o.o.o.o.o.o.o.o.o.o.o.o.Q E I I K K D D D n n n n A D A I I R R o.o.o.o.o.o.o.o.o.o.o.o._ R I I D I A n n n ",
"n n n A S S S I R R R R ) o.o.o.o.o.o.` _ _ Q E E E K K D D n n n A n A D K I I R R ) ) } o.o.o.o.o.o.` _ _ R R I I I D A A n n ",
"n n n n S S I I K R R ) ) ` } o.o...` _ _ _ _ E K I K K D n D D n n n A A K I I R R ) ) ) } } o.} } } } _ _ R R I I K D D D n n ",
"n A A A S S L I R R R ) ) _ } } ....} _ _ _ Q Q E K K K D D n n n n A A A A I I R R R ) ( ( } } } } } ` Q Q R R E I D D A D n n ",
"n n n A S S S I K R / / ` ` ` ` ....} _ _ _ Q Q E I P D D n n D n n A S S I I I I R ) ) ) ( } } } } ` ` _ Q Q R E P D D D C n n ",
"n n A n S S K I R R R R ( ` } } ......_ _ _ Q E E E P P D D D n n A n A S K I I I ) R ) ) } } } ..} } ` _ _ Q R I P P D D C n n ",
"n n A A S K S R K R R / ` ` } } ....} _ _ Q Q E D E P D D D n n n S n S S S I I R R R ) } ( } } ..} ` ` Q Q Q R E P D P D C n n ",
"n n n A S S K I R R R ( ` ` ` } ......} _ _ _ E E K D D D D D n n n n S K S K I R R R ) ( } } } ..} ` ` _ _ Q R E P D D C C n n ",
"n n A A S S K I R R R ) ` ` } } ......` _ _ Q E E K D D D D n D n n n K K S I I R R R ( ( ( } } ..} } } _ Q R R I I K D D C n n ",
"o.o.n A S S K I K R R R ( ` ` } ....} ` _ Q _ E K E K K D D n n n n n S K S I I R R R ) ( } } } ....} ` _ Q Q R I I K K C C o.o.",
"o.o.o.o.o.K K K R R R ) _ ` } } ....` _ _ Q Q E E I K K D n n D n n n S S S I I R R R ( ( ( } } ..} ` ` _ Q _ Q E I I o.o.o.o.o.",
"o.o.o.o.o.o.o.R K R R ) ) ` } } ......_ _ _ E E E E I D D D D n n S S S S K I I R R ( ( ( } } } ....` } _ _ I I o.o.o.o.o.o.o.o.",
"o.o.o.o.o.o.o.o.o.o.R ) ( ` ` } } } } { _ _ E E Q I K K D D n n n n n A S A I I R R R R _ ` } } ..} } ` ` _ o.o.o.o.o.o.o.o.o.o.",
"X X o.o.o.o.o.o.o.o.o.o.o.` } } X.} } _ _ _ _ E I R K K D D D n n A n A K K I I R R ) _ _ } } } ....` o.o.o.o.o.o.o.o.o.o.o.X X ",
"    X X + o.o.o.o.o.o.o.o.o.o.} X.X.} } _ _ E E I I K K D D n D n n n A A S I I R R Q _ _ ` } } ..o.o.o.o.o.o.o.o.o.o.+ + X     ",
"    X X X + + o.o.o.o.o.o.o.o.o.o.o.} } _ _ Q E I I K K D D n n n n A A S K I I R R R _ _ ` o.o.o.o.o.o.o.o.o.o.o.+ + + X +     ",
". . . X o o + + o - o.o.o.o.o.o.o.o.o.o._ _ Q Q R I I K D A D n n n A S S S I I R R ) o.o.o.o.o.o.o.o.o.o.o.- + + > +   + X     ",
". . . X o o + + - o - - o.o.o.o.o.o.o.o.o.o.o.Q I I K K D K n n n A n S K S I I R o.o.o.o.o.o.o.o.o.o.2 2 - 2 + > > + > X +     ",
". . X X o + + + % % - - - 5 - o.o.o.o.o.o.o.o.o.o.o.K K D n A n n n n S K S o.o.o.o.o.o.o.o.o.o.o.2 2 2 2 2 + 2 + > > X         ",
". . X + o.o.+ + % % - - - - 5 - 5 - o.o.o.o.o.o.o.o.o.o.K D A n n A n o.o.o.o.o.o.o.o.o.o.o.p 2 9 9 2 2 > + 2 + + o.o.o.X >     ",
". . . . o.o.o.o.+ + - - - 5 - 5 5 - y y o.o.o.o.o.o.o.o.o.o.o.n n o.o.o.o.o.o.o.o.o.o.5 p 5 p 2 2 9 2 2 2 - - o.o.o.o.o.+ X     ",
". . . . o.o.o.o.+ - - - - - 5 - 5 8 8 8 7 7 y o.o.o.o.o.o.o.o.o.o.o.o.o.o.o.o.o.o.p p p - p 2 p 9 2 2 2 o.o.o.o.o.o.o.o.X +     ",
"    . . o.o.o.o.- o % - o.o.5 - - y 8 y 7 7 y y y y o.o.o.o.o.o.o.o.o.o.o.o.l l p p p 5 p p 9 2 5 o.o.o.o.o.o.o.o.o.o.o.X       ",
"  . . . o.o.o.o.o % % - o.o.o.o.o.- y - 6 y 5 y y y l y o.o.o.o.o.o.o.o.z y l y p p p p p - 9 o.o.o.o.o.o.o.o.o.o.o.o.o.X >     ",
"    . . o.o.o.o.- % % - o.o.o.o.o.o.o.o.y y y y y l l y z z l o.o.x x x z x y l p p p p o.o.o.o.o.o.o.o.o.> + 2 o.o.o.o.X       ",
"    . . o.o.o.o.- o % - 5 o.o.o.o.o.o.o.o.o.y y y y y l y l l z x x x x x p l y p p o.o.o.o.o.o.o.o.o.- > + 2 + o.o.o.o.>       ",
"    . . o.o.o.o.o o - - - 5 - 5 o.o.o.o.o.o.o.o.o.l y y z z z z x x x x x x y o.o.o.o.o.o.o.o.o.9 - 2 2 > > > > o.o.o.o.  >     ",
"    . . o.o.o.o.- % % - - - 5 - 8 8 o.o.o.o.o.o.o.o.o.l y z z z b b x x o.o.o.o.o.o.o.o.o.9 9 9 5 9 2 2 > > > > o.o.o.o.  X     ",
". . . X o.o.o.o.o - - - 5 - 5 - % y 6 7 y o.o.o.o.o.o.o.o.o.z z b x o.o.o.o.o.o.o.o.o.y 5 y y 5 5 5 5 - - - - - o.o.o.o.+ +     ",
". . . X o.o.o.o.- o % - - - - 5 y % 6 7 5 5 y y o.o.o.o.o.o.o.o.o.o.o.o.o.o.o.o.k y y y y 5 5 5 5 5 - 5 5 - - + o.o.o.o.+ +     ",
". . o . o.o.o.o.o - - - o.o.o.5 % y 6 7 y y y y y y o.o.o.o.o.o.o.o.o.o.o.o.z z y y y y y 5 5 y 5 o.o.o.- - - - o.o.o.o.+ +     ",
". . o + o.o.o.o.o % - - o.o.o.o.o.% 6 6 6 6 y y y y z y y o.o.o.o.o.o.x x x y l k y y y 5 y o.o.o.o.o.o.5 - - + o.o.o.o.X +     ",
". . . . o.o.o.o.- % % - o.o.o.o.o.o.o.o.y y y y z y z y y z z o.x x x x x x p p y y y y o.o.o.o.o.o.o.o.- 5 - - o.o.o.o.+ X     ",
". . . . o.o.o.o.o - % - o.o.o.o.o.o.o.o.o.o.o.y y y 7 z k z z z x x x x x p y x l o.o.o.o.o.o.o.o.o.o.o.- - - - o.o.o.o.X +     ",
"    . . o.o.o.o.o % % - o.o.o.o.o.o.o.o.o.o.o.o.o.y z l y z z z b x x x x x o.o.o.o.o.o.o.o.o.o.o.o.o.o.- - - - o.o.o.o.        ",
"  . . . o.o.o.o.- % % - o.o.o.o.o.o.o.o.o.o.o.o.o.o.o.o.z y l z b b x x o.o.o.o.o.o.o.o.o.o.o.o.o.o.o.o.5 - - + o.o.o.o.X >     ",
"    . . o.o.o.o.o - % - o.o.o.o.o.o.o.o.o.o.o.o.o.o.o.o.o.o.o.z b o.o.o.o.o.o.o.o.o.o.o.o.o.o.o.o.o.o.o.2 - 2 + o.o.o.o.> X     ",
"    . . o.o.o.o.- o % - o.o.o.o.o.o.o.o.o.o.o.o.o.o.o.o.o.o.o.o.o.o.o.o.o.o.o.o.o.o.o.o.o.o.o.o.o.o.o.o.2 - - 2 o.o.o.o.  X     ",
"    . . o.o.o.o.- % % - o.o.o.o.o.o.o.o.o.o.o.o.o.o.o.o.o.o.o.o.o.o.o.o.o.o.o.o.o.o.o.o.o.o.o.o.o.o.o.o.> + - + o.o.o.o.  >     ",
"    . . o.o.o.o.o % % - o.o.o.o.o.o.o.o.o.o.o.o.o.o.o.o.o.o.o.o.o.o.o.o.o.o.o.o.o.o.o.o.o.o.o.o.o.o.o.o.2 2 2 + o.o.o.o.  X     ",
". . . X + o.o.o.o - % - o.o.o.o.o.o.o.o.o.o.o.o.o.o.o.o.o.o.o.o.o.o.o.o.o.o.o.o.o.o.o.o.o.o.o.o.o.o.o.o.> + 2 2 o.o.o.  X       ",
". . . X X o + + - o % - o.o.o.o.o.o.o.o.o.o.o.o.o.o.o.o.o.o.o.o.o.o.o.o.o.o.o.o.o.o.o.o.o.o.o.o.o.o.o.o.> 2 - + > > > > >       ",
". . . X o o + + - % - - o.o.o.o.o.o.o.o.o.o.o.o.o.o.o.o.o.o.o.o.o.o.o.o.o.o.o.o.o.o.o.o.o.o.o.o.o.o.o.o.> + > > > X >     >     ",
". . o o o + + + o - - - o.o.o.o.o.o.o.o.o.o.o.o.o.o.o.o.o.o.o.o.o.o.o.o.o.o.o.o.o.o.o.o.o.o.o.o.o.o.o.o.> > + X > > X >   X     ",
"o.    X + o + + + - - - o.o.o.o.o.o.o.o.o.o.o.o.o.o.o.o.o.o.o.o.o.o.o.o.o.o.o.o.o.o.o.o.o.o.o.o.o.o.o.o.2 + 2 + 2 + + + + + O o.",
"o.o.o.o.o.o.o.o.o.o.o.o.o.o.o.o.o.o.o.o.o.o.o.o.o.o.o.o.o.o.o.o.o.o.o.o.o.o.o.o.o.o.o.o.o.o.o.o.o.o.o.o.o.o.o.o.o.o.o.o.o.o.o.o.",
"o.o.o.o.o.o.o.o.o.o.o.o.o.o.o.o.o.o.o.o.o.o.o.o.o.o.o.o.o.o.o.o.o.o.o.o.o.o.o.o.o.o.o.o.o.o.o.o.o.o.o.o.o.o.o.o.o.o.o.o.o.o.o.o.",
"o.o.o.o.o.o.o.o.o.o.o.o.o.o.o.o.o.o.o.o.o.o.o.o.o.o.o.o.o.o.o.o.o.o.o.o.o.o.o.o.o.o.o.o.o.o.o.o.o.o.o.o.o.o.o.o.o.o.o.o.o.o.o.o.",
"o.o.o.o.o.o.o.o.o.o.o.o.o.o.o.o.o.o.o.o.o.o.o.o.o.o.o.o.o.o.o.o.o.o.o.o.o.o.o.o.o.o.o.o.o.o.o.o.o.o.o.o.o.o.o.o.o.o.o.o.o.o.o.o.",
"    . X X + + + + - - - - - - 5 y % 5 y y 5 y y y y l y y z z z z z x z k k k y y k y y 5 y y 5 9 9 2 2 2 - - 2 > > + + + +     ",
"    X X o o + + - - % - - 5 5 - % y y % 5 y y y y l y l z y z z x x x x k k k k k y y y y 5 5 5 - - 9 2 2 5 + + + > + + + X     ",
"      + o o + + + + % - - - - 5 y % 7 y 5 y y y y y l y l z z z x x x x k y k k 5 y y y y 5 y y 9 5 - 2 > + - - > + + + X +     ",
"    X X o + + - - % - - - - - 5 5 - y y y 5 y y y y y k y z z z x x x x x x z z k y y y 5 y 5 5 9 2 2 2 2 - - 2 + > + + + +     ",
"      X o.o.o.o.o.o.o.o.o.o.o.o.o.o.o.o.o.o.o.o.o.o.o.o.o.o.o.o.o.o.o.o.o.o.o.o.o.o.o.o.o.o.o.o.o.o.o.o.o.o.o.o.o.o.o.o.+ X     ",
"    X X o.o.o.o.o.o.o.o.o.o.o.o.o.o.o.o.o.o.o.o.o.o.o.o.o.o.o.o.o.o.o.o.o.o.o.o.o.o.o.o.o.o.o.o.o.o.o.o.o.o.o.o.o.o.o.o.X +     ",
"    X X o.o.o.o.o.o.o.o.o.o.o.o.o.o.o.o.o.o.o.o.o.o.o.o.o.o.o.o.o.o.o.o.o.o.o.o.o.o.o.o.o.o.o.o.o.o.o.o.o.o.o.o.o.o.o.o.> X     ",
"    + . o.o.o.o.o.o.o.o.o.o.o.o.o.o.o.o.o.o.o.o.o.o.o.o.o.o.o.o.o.o.o.o.o.o.o.o.o.o.o.o.o.o.o.o.o.o.o.o.o.o.o.o.o.o.o.    X     ",
"    . X o o + + - - - - - - - 5 % y y 5 y y y 7 k y y l y k z z x x x x x k k y y y y y p 9 9 9 9 - 2 2 2 2 - + + > > > X X     ",
". . . X o o + + + - % - - 5 5 - % 5 6 7 y y 7 y y l l y k z z z x x x x k k k y y y y y 9 9 9 9 9 - 2 2 2 + 2 + > +             ",
". . . X o o + + o - % - - - - 5 6 6 6 7 6 6 y y y y y l z z z z x x z z k z y k y y y y p 9 9 9 5 9 2 2 2 2 + > + > > > X >     ",
". . . . . . X + + + - - - - 5 - y - y y % y y y 7 l 7 z l l l z z z z z z y z y k y y y 5 y 5 5 5 5 5 5 - - - - + + + + + + + o."
};
