/* XPM */
static char *bitcoin_32[] = {
/* columns rows colors chars-per-pixel */
"33 33 46 1 ",
"  c #A77E48",
". c #A87F48",
"X c #AA8048",
"o c #AB8149",
"O c #AD8249",
"+ c #AF8349",
"@ c #AD824A",
"# c #AF834A",
"$ c #B0844A",
"% c #B0854A",
"& c #B2854A",
"* c #B2864B",
"= c #B3874B",
"- c #B4874B",
"; c #B5884B",
": c #B6884B",
"> c #B7894B",
", c #B78A4C",
"< c #B98A4C",
"1 c #B98B4C",
"2 c #BA8C4C",
"3 c #BA8C4D",
"4 c #BC8D4C",
"5 c #BC8D4D",
"6 c #BE8E4D",
"7 c #BF8F4D",
"8 c #BF8F4E",
"9 c #C1904E",
"0 c #C2914E",
"q c #E0B35C",
"w c #E3B65D",
"e c #E5B95F",
"r c #E7BA5F",
"t c #E9BD61",
"y c #EABE61",
"u c #ECC162",
"i c #EEC263",
"p c #F0C564",
"a c #F2C665",
"s c #F4C966",
"d c #F5CA66",
"f c #F7CD68",
"g c #F9CE68",
"h c #FBD16A",
"j c #FED46B",
"k c None",
/* pixels */
"kkkkkkkkkkkkkkkkkkkkkkkkkkkkkkkkk",
"kwrkkkkkkkkkkkkrwwrkkkkkkkkkkktwq",
"kwryiakkkkkkaitrwwryiakkkkkkiitqq",
"kwryiadgkjffiitrqwryiadgkjfdiytqq",
"kwryiadgjjfpiutwqwryiadgjjfdditqq",
"kwryiadgjfffputrqwryiadgjffdiitqq",
"kwryiadgjjffpitwqwryiadgjffdiitqw",
"kkkyiadgjffpputrqwryiaddjjfdiiykk",
"kkkkkkfgjgffiitrqwryiafgjjfdkkkkk",
"k.Xkkkkkjjfaiitrqwryiadgjkkkkkk  ",
"kXXXX&kkkkkdaitrqwryiafkkkkk&XXX ",
"kXXXX&&&kkkkkktrqwtykkkkk&&&&XX  ",
"k.XkkXX&&,&kkkkkqkkkkkk,==*&kkk  ",
"k.Xkk&&k&,3333kkkkkk8333==kkkkk  ",
"k.XkkX&kkkk33999kk39333kkkkkXkk  ",
"k.Xkk&&&&kkkk33999933kkkk==&&kk  ",
"k.Xkk&&&&33kkkkk99kkkk3,,&&X&kk  ",
"k.Xkk&Xk&&>333kkkkkk933,,&k,&kk  ",
"k.XkkX&kkkk333999999333kkkkXXkk  ",
"k.Xkk&&kkkkkk3399993kkkkkkk&&kk  ",
"k.Xkk&&kkkkkkkkk99kkkkkkkkk&&kkX ",
"k.XkkXXkkkkkkkkkkkkkkkkkkkk*Xkk. ",
"k.Xkk&&kkkkkkkkkkkkkkkkkkkk**kX. ",
"kXXXX&&kkkkkkkkkkkkkkkkkkkkX&XX  ",
"k.XXX&&kkkkkkkkkkkkkkkkkkkk&X%Xok",
"kkkkkkkkkkkkkkkkkkkkkkkkkkkkkkkkk",
"kkkkkkkkkkkkkkkkkkkkkkkkkkkkkkkkk",
"k.XXXX&&&&,333999999333====&%%X  ",
"kXXX&&X,,>33339999933333=***%%.  ",
"kXXkkkkkkkkkkkkkkkkkkkkkkkkkkkk  ",
"kXXkkkkkkkkkkkkkkkkkkkkkkkkkkk% .",
"kXXXXX&&&&33333899993333==*%%%. .",
"kXXXX&X==333333999933333&&&&&XXXk"
};
