/* XPM */
static char *bitcoin_16[] = {
/* columns rows colors chars-per-pixel */
"17 17 24 1 ",
"  c #A77E48",
". c #AA8048",
"X c #AD8249",
"o c #AF834A",
"O c #B0844A",
"+ c #B2864B",
"@ c #B4874B",
"# c #B5884B",
"$ c #B7894B",
"% c #B98B4C",
"& c #BA8C4C",
"* c #BC8D4D",
"= c #BE8E4D",
"- c #BF8F4E",
"; c #C2914E",
": c #E0B35C",
"> c #E7BA5F",
", c #E9BD61",
"< c #EEC263",
"1 c #F0C564",
"2 c #F5CA66",
"3 c #F7CD68",
"4 c #FED46B",
"5 c None",
/* pixels */
"55555555555555555",
"5><5555,:,<5551::",
"5><2431,:><2431::",
"5><2431,:><2431::",
"5552431,:>1243155",
"5..5551,:><3555  ",
"5.5O#%55:555##.5 ",
"5.5O55%%5;%%5555 ",
"5.5O#%55;%55%OO5 ",
"5.5O55%%;;%%55O5 ",
"5.5O5555;55555O5 ",
"5.5O5555555555.  ",
"5..O5555555555O 5",
"55555555555555555",
"5.OO#%%*;;*%%OO  ",
"5.5555555555555  ",
"5..O#%%;;*%%%OO 5"
};
